<svg xmlns="http://www.w3.org/2000/svg" viewBox="0 0 263.229 67.038" height="67.038" width="263.229"><path d="M0 0h6.336v51.125H0zm48.53 33.412c0 12.889-8.929 18.505-17.354 18.505-9.433 0-16.706-6.913-16.706-17.93 0-11.665 7.633-18.505 17.281-18.505 10.01 0 16.779 7.272 16.779 17.93zm-27.65.359c0 7.633 4.392 13.393 10.584 13.393 6.049 0 10.585-5.688 10.585-13.537 0-5.904-2.952-13.393-10.441-13.393-7.488 0-10.728 6.913-10.728 13.537zm65.666-17.497a153.448 153.448 0 00-.288 9.577v20.234c0 7.993-1.584 12.889-4.969 15.914-3.384 3.168-8.28 4.176-12.673 4.176-4.176 0-8.785-1.008-11.593-2.88l1.584-4.825c2.304 1.44 5.904 2.736 10.225 2.736 6.481 0 11.233-3.384 11.233-12.169v-3.888h-.144c-1.944 3.24-5.688 5.833-11.089 5.833-8.641 0-14.833-7.345-14.833-16.994 0-11.809 7.705-18.505 15.697-18.505 6.048 0 9.361 3.168 10.873 6.048h.144l.288-5.256h5.545zm-6.553 13.753c0-1.08-.072-2.016-.36-2.88-1.152-3.672-4.249-6.697-8.857-6.697-6.048 0-10.369 5.113-10.369 13.177 0 6.841 3.456 12.529 10.297 12.529 3.888 0 7.417-2.448 8.785-6.481.36-1.08.504-2.304.504-3.384zm48.313 3.385c0 12.889-8.929 18.505-17.354 18.505-9.433 0-16.706-6.913-16.706-17.93 0-11.665 7.633-18.505 17.281-18.505 10.01 0 16.779 7.272 16.779 17.93zm-27.651.359c0 7.633 4.392 13.393 10.584 13.393 6.049 0 10.585-5.688 10.585-13.537 0-5.904-2.952-13.393-10.441-13.393-7.488 0-10.728 6.913-10.728 13.537z" fill="#474747"/><path d="M143.927 6.265v10.009H153v4.825h-9.073v18.793c0 4.32 1.224 6.769 4.752 6.769 1.656 0 2.88-.216 3.672-.432l.288 4.752c-1.224.504-3.168.864-5.617.864-2.952 0-5.329-.936-6.84-2.665-1.8-1.872-2.448-4.968-2.448-9.073V21.098h-5.401v-4.825h5.401V7.92zm18.503 10.009l7.633 20.594c.792 2.304 1.656 5.041 2.232 7.129h.144c.648-2.088 1.368-4.752 2.232-7.273l6.913-20.45h6.697l-9.505 24.842c-4.537 11.953-7.633 18.074-11.953 21.818-3.096 2.736-6.192 3.816-7.777 4.104l-1.584-5.329c1.584-.504 3.672-1.512 5.544-3.096 1.728-1.368 3.888-3.816 5.329-7.057.288-.648.504-1.152.504-1.512 0-.36-.144-.864-.432-1.656l-12.889-32.115h6.912zm31.608 11.377c0-4.464-.145-8.064-.288-11.377h5.688l.288 5.977h.144c2.593-4.249 6.696-6.769 12.385-6.769 8.425 0 14.762 7.128 14.762 17.713 0 12.529-7.633 18.722-15.842 18.722-4.608 0-8.641-2.016-10.729-5.472h-.145v18.938h-6.264V27.651zm6.263 9.289c0 .936.145 1.8.288 2.592 1.152 4.392 4.969 7.417 9.505 7.417 6.697 0 10.585-5.473 10.585-13.465 0-6.984-3.672-12.961-10.368-12.961-4.32 0-8.354 3.096-9.577 7.849-.216.792-.433 1.728-.433 2.592zm38.232-2.089c.144 8.569 5.616 12.097 11.952 12.097 4.537 0 7.273-.792 9.649-1.8l1.08 4.537c-2.232 1.008-6.049 2.16-11.593 2.16-10.729 0-17.138-7.057-17.138-17.57s6.192-18.793 16.346-18.793c11.377 0 14.4 10.009 14.4 16.417 0 1.296-.144 2.304-.216 2.952zm18.577-4.536c.072-4.033-1.656-10.297-8.785-10.297-6.408 0-9.217 5.905-9.721 10.297z" fill="#266ec0"/></svg>