<?xml version="1.0" encoding="UTF-8" standalone="no"?>
<svg
   xmlns:dc="http://purl.org/dc/elements/1.1/"
   xmlns:cc="http://creativecommons.org/ns#"
   xmlns:rdf="http://www.w3.org/1999/02/22-rdf-syntax-ns#"
   xmlns:svg="http://www.w3.org/2000/svg"
   xmlns="http://www.w3.org/2000/svg"
   xml:space="preserve"
   enable-background="new 0 0 640 480"
   viewBox="0 0 263.229 67.038002"
   height="67.038002"
   width="263.229"
   y="0px"
   x="0px"
   id="Слой_1"
   version="1.1"><metadata
   id="metadata23"><rdf:RDF><cc:Work
       rdf:about=""><dc:format>image/svg+xml</dc:format><dc:type
         rdf:resource="http://purl.org/dc/dcmitype/StillImage" /><dc:title></dc:title></cc:Work></rdf:RDF></metadata><defs
   id="defs21" />
<path
   style="fill:#474747"
   id="path2"
   d="M 0,0 H 6.336 V 51.125 H 0 Z" />
<path
   style="fill:#474747"
   id="path4"
   d="m 48.53,33.412 c 0,12.889 -8.929,18.505 -17.354,18.505 -9.433,0 -16.706,-6.913 -16.706,-17.93 0,-11.665 7.633,-18.505 17.281,-18.505 10.01,0 16.779,7.272 16.779,17.93 z m -27.65,0.359 c 0,7.633 4.392,13.393 10.584,13.393 6.049,0 10.585,-5.688 10.585,-13.537 0,-5.904 -2.952,-13.393 -10.441,-13.393 -7.488,0 -10.728,6.913 -10.728,13.537 z" />
<path
   style="fill:#474747"
   id="path6"
   d="m 86.546,16.274 c -0.144,2.521 -0.288,5.329 -0.288,9.577 v 20.234 c 0,7.993 -1.584,12.889 -4.969,15.914 -3.384,3.168 -8.28,4.176 -12.673,4.176 -4.176,0 -8.785,-1.008 -11.593,-2.88 l 1.584,-4.825 c 2.304,1.44 5.904,2.736 10.225,2.736 6.481,0 11.233,-3.384 11.233,-12.169 v -3.888 h -0.144 c -1.944,3.24 -5.688,5.833 -11.089,5.833 -8.641,0 -14.833,-7.345 -14.833,-16.994 0,-11.809 7.705,-18.505 15.697,-18.505 6.048,0 9.361,3.168 10.873,6.048 h 0.144 l 0.288,-5.256 h 5.545 z m -6.553,13.753 c 0,-1.08 -0.072,-2.016 -0.36,-2.88 -1.152,-3.672 -4.249,-6.697 -8.857,-6.697 -6.048,0 -10.369,5.113 -10.369,13.177 0,6.841 3.456,12.529 10.297,12.529 3.888,0 7.417,-2.448 8.785,-6.481 0.36,-1.08 0.504,-2.304 0.504,-3.384 z" />
<path
   style="fill:#474747"
   id="path8"
   d="m 128.306,33.412 c 0,12.889 -8.929,18.505 -17.354,18.505 -9.433,0 -16.706,-6.913 -16.706,-17.93 0,-11.665 7.633,-18.505 17.281,-18.505 10.01,0 16.779,7.272 16.779,17.93 z m -27.651,0.359 c 0,7.633 4.392,13.393 10.584,13.393 6.049,0 10.585,-5.688 10.585,-13.537 0,-5.904 -2.952,-13.393 -10.441,-13.393 -7.488,0 -10.728,6.913 -10.728,13.537 z" />
<path
   style="fill:#266ec0"
   id="path10"
   d="M 143.927,6.265 V 16.274 H 153 v 4.825 h -9.073 v 18.793 c 0,4.32 1.224,6.769 4.752,6.769 1.656,0 2.88,-0.216 3.672,-0.432 l 0.288,4.752 c -1.224,0.504 -3.168,0.864 -5.617,0.864 -2.952,0 -5.329,-0.936 -6.84,-2.665 -1.8,-1.872 -2.448,-4.968 -2.448,-9.073 V 21.098 h -5.401 v -4.825 h 5.401 V 7.92 Z" />
<path
   style="fill:#266ec0"
   id="path12"
   d="m 162.43,16.274 7.633,20.594 c 0.792,2.304 1.656,5.041 2.232,7.129 h 0.144 c 0.648,-2.088 1.368,-4.752 2.232,-7.273 l 6.913,-20.45 h 6.697 l -9.505,24.842 c -4.537,11.953 -7.633,18.074 -11.953,21.818 -3.096,2.736 -6.192,3.816 -7.777,4.104 l -1.584,-5.329 c 1.584,-0.504 3.672,-1.512 5.544,-3.096 1.728,-1.368 3.888,-3.816 5.329,-7.057 0.288,-0.648 0.504,-1.152 0.504,-1.512 0,-0.36 -0.144,-0.864 -0.432,-1.656 L 155.518,16.273 h 6.912 z" />
<path
   style="fill:#266ec0"
   id="path14"
   d="m 194.038,27.651 c 0,-4.464 -0.145,-8.064 -0.288,-11.377 h 5.688 l 0.288,5.977 h 0.144 c 2.593,-4.249 6.696,-6.769 12.385,-6.769 8.425,0 14.762,7.128 14.762,17.713 0,12.529 -7.633,18.722 -15.842,18.722 -4.608,0 -8.641,-2.016 -10.729,-5.472 h -0.145 v 18.938 h -6.264 V 27.651 Z m 6.263,9.289 c 0,0.936 0.145,1.8 0.288,2.592 1.152,4.392 4.969,7.417 9.505,7.417 6.697,0 10.585,-5.473 10.585,-13.465 0,-6.984 -3.672,-12.961 -10.368,-12.961 -4.32,0 -8.354,3.096 -9.577,7.849 -0.216,0.792 -0.433,1.728 -0.433,2.592 z" />
<path
   style="fill:#266ec0"
   id="path16"
   d="m 238.533,34.851 c 0.144,8.569 5.616,12.097 11.952,12.097 4.537,0 7.273,-0.792 9.649,-1.8 l 1.08,4.537 c -2.232,1.008 -6.049,2.16 -11.593,2.16 -10.729,0 -17.138,-7.057 -17.138,-17.57 0,-10.513 6.192,-18.793 16.346,-18.793 11.377,0 14.4,10.009 14.4,16.417 0,1.296 -0.144,2.304 -0.216,2.952 z m 18.577,-4.536 c 0.072,-4.033 -1.656,-10.297 -8.785,-10.297 -6.408,0 -9.217,5.905 -9.721,10.297 z" />
</svg>